<svg width="36" height="38" viewBox="0 0 36 38" fill="none" xmlns="http://www.w3.org/2000/svg">
<path d="M0 27.882V9.87945C0 4.44253 4.23529 0 9.4186 0H26.5814C31.7647 0 36 4.44253 36 9.87945V27.882C36 33.3189 31.7647 37.7615 26.5814 37.7615H20.8071L17.7907 36.9866L15.1929 37.7615H9.4186C4.23529 37.7615 0 33.3189 0 27.882Z" fill="white"/>
<path d="M25.0055 24.9636L25.8058 19.5008H20.8072V15.9623C20.8072 14.4642 21.5089 13.0178 23.7374 13.0178H26.0028V8.36866C26.0028 8.36866 23.9467 7.99414 21.9768 7.99414C17.8646 7.99414 15.1806 10.6028 15.1806 15.3424V19.5008H10.6129V24.9636H15.1806V37.7616H20.8072V24.9636H25.0055Z" fill="#0D2242"/>
</svg>
