<svg width="36" height="38" viewBox="0 0 36 38" fill="none" xmlns="http://www.w3.org/2000/svg">
<path d="M0 27.882V9.87941C0 4.44248 4.23529 -4.43378e-05 9.4186 -4.43378e-05H26.5814C31.7647 -4.43378e-05 36 4.44248 36 9.87941V27.882C36 33.3189 31.7647 37.7614 26.5814 37.7614H9.4186C4.23529 37.7614 0 33.3189 0 27.882Z" fill="white"/>
<path d="M27.5357 6.7417C26.3805 6.7417 25.4353 7.7331 25.4353 8.94482C25.4353 10.1786 26.3805 11.17 27.5357 11.17C28.7119 11.17 29.657 10.1786 29.657 8.94482C29.636 7.7331 28.7119 6.7417 27.5357 6.7417Z" fill="#0D2242"/>
<path d="M18.1471 9.5835C13.2532 9.5835 9.28357 13.7474 9.28357 18.8807C9.28357 24.0139 13.2532 28.1778 18.1471 28.1778C23.0409 28.1778 27.0105 24.0139 27.0105 18.8807C27.0105 13.7474 23.0409 9.5835 18.1471 9.5835ZM18.1471 24.8511C15.0175 24.8511 12.4761 22.1854 12.4761 18.9027C12.4761 15.6201 15.0175 12.9543 18.1471 12.9543C21.2766 12.9543 23.818 15.6201 23.818 18.9027C23.818 22.1854 21.2766 24.8511 18.1471 24.8511Z" fill="#0D2242"/>
</svg>
