<svg width="104" height="88" viewBox="0 0 104 88" fill="none" xmlns="http://www.w3.org/2000/svg">
<path d="M98.047 66.9038L102 66.6335L101.422 59.6608L97.5164 59.9311C96.9294 57.9753 95.99 56.1586 94.755 54.5367L97.4382 51.9647L91.9022 47.1347L89.2407 49.6869C87.262 48.53 85.0398 47.6952 82.6523 47.258V43.7557H75.0028V47.258C71.9978 47.8065 69.2494 48.9952 66.9185 50.6528L64.0005 48.3392L58.982 53.6224L61.9217 55.9519C60.6954 57.9475 59.8822 60.1736 59.5778 62.5469L55.6508 62.8212L56.2249 69.7938L60.1909 69.5195C60.7998 71.4435 61.7478 73.2364 62.9828 74.8345L60.2083 77.486L65.7443 82.3199L68.5362 79.6445C70.4801 80.7616 72.6589 81.5686 74.9942 81.9979V85.7068H82.6436V81.9979C85.5921 81.4573 88.2927 80.3044 90.5975 78.6945L93.646 81.1154L98.6602 75.8323L95.6378 73.4312C96.8815 71.4595 97.7165 69.2571 98.047 66.9038ZM78.8298 70.2867C75.4682 70.2867 72.7371 67.7942 72.7371 64.7214C72.7371 61.6485 75.4682 59.1599 78.8298 59.1599C82.1914 59.1599 84.9181 61.6485 84.9181 64.7214C84.9181 67.7942 82.1914 70.2867 78.8298 70.2867Z" fill="#75CCF4" stroke="#27348B" stroke-width="3" stroke-miterlimit="10"/>
<path d="M84.918 64.7212C84.918 67.7941 82.1914 70.2866 78.8298 70.2866C75.4682 70.2866 72.7371 67.7941 72.7371 64.7212C72.7371 61.6483 75.4682 59.1598 78.8298 59.1598C82.1914 59.1598 84.918 61.6483 84.918 64.7212Z" fill="white" stroke="#27348B" stroke-width="3" stroke-miterlimit="10"/>
<path d="M60.491 31.631C60.491 30.8915 60.4518 30.1601 60.3779 29.4406L65.7138 28.1645L63.322 19.8124L57.8861 21.1124C56.738 18.9299 55.2464 16.9264 53.4721 15.1653L56.9641 11.0311L49.4842 5.75587L45.9487 9.94581C43.6612 8.87248 41.1868 8.10128 38.5775 7.6799V2.35303H29.132V7.67195C26.6532 8.07345 24.2962 8.79298 22.1044 9.77885L18.6341 5.54518L11.0759 10.721L14.5027 14.9109C13.1981 16.1711 12.037 17.5545 11.0454 19.0452L5.73994 17.2603L2.47836 25.3659L7.6795 27.119C7.37943 28.5779 7.21853 30.0885 7.21853 31.6349C7.21853 32.1676 7.24462 32.6963 7.27941 33.2211L2 34.4812L4.39182 42.8373L9.55817 41.6009C10.6801 43.8788 12.1674 45.9698 13.9635 47.8143L10.7497 51.6147L18.2296 56.8938L21.3955 53.1452C23.783 54.302 26.3879 55.1368 29.1363 55.586V60.2927H38.5819V55.586C41.1998 55.1566 43.6786 54.3815 45.9748 53.3081L49.0755 57.0966L56.6336 51.9208L53.4851 48.0767C54.8202 46.7489 55.99 45.2821 56.9772 43.7039L61.9652 45.3775L65.2268 37.2758L60.1344 35.5625C60.3649 34.2825 60.491 32.9706 60.491 31.631ZM33.8548 43.3461C26.5923 43.3461 20.7041 37.9636 20.7041 31.3249C20.7041 24.6822 26.5923 19.2996 33.8548 19.2996C41.1215 19.2996 47.0054 24.6822 47.0054 31.3249C47.0098 37.9636 41.1215 43.3461 33.8548 43.3461Z" stroke="#27348B" stroke-width="3" stroke-miterlimit="10"/>
<path d="M33.8547 48.3391C23.5743 48.3391 15.242 40.7225 15.242 31.3249C15.242 21.9274 23.5743 14.3068 33.8547 14.3068" stroke="#27348B" stroke-width="3" stroke-miterlimit="10"/>
</svg>
