<svg width="60" height="94" viewBox="0 0 60 94" fill="none" xmlns="http://www.w3.org/2000/svg">
<path d="M58 87.4091C58 89.9895 56.1502 92.0855 53.8647 92.0855H6.13529C3.8535 92.0855 2 89.9937 2 87.4091V6.76192C2 4.18154 3.8535 2.08551 6.13529 2.08551H53.8647C56.1465 2.08551 58 4.17737 58 6.76192V87.4091Z" stroke="#28348A" stroke-width="2.8" stroke-miterlimit="10"/>
<path d="M51.6605 12.9206H8.34326V23.8058H51.6605V12.9206Z" fill="#74CBF3" stroke="#28348A" stroke-width="2.8" stroke-miterlimit="10"/>
<path d="M51.6605 30.1565H8.34326V34.0855H51.6605V30.1565Z" stroke="#28348A" stroke-width="2.8" stroke-miterlimit="10"/>
<path d="M20.727 41.6513H12.7001V50.7285H20.727V41.6513Z" fill="#74CBF3" stroke="#28348A" stroke-width="2.8" stroke-miterlimit="10"/>
<path d="M34.0117 41.6513H25.9848V50.7285H34.0117V41.6513Z" fill="#74CBF3" stroke="#28348A" stroke-width="2.8" stroke-miterlimit="10"/>
<path d="M47.3037 41.6513H39.2768V50.7285H47.3037V41.6513Z" fill="#74CBF3" stroke="#28348A" stroke-width="2.8" stroke-miterlimit="10"/>
<path d="M20.727 56.9122H12.7001V65.9936H20.727V56.9122Z" fill="#74CBF3" stroke="#28348A" stroke-width="2.8" stroke-miterlimit="10"/>
<path d="M34.0117 56.9122H25.9848V65.9936H34.0117V56.9122Z" fill="#74CBF3" stroke="#28348A" stroke-width="2.8" stroke-miterlimit="10"/>
<path d="M47.3037 56.9122H39.2768V65.9936H47.3037V56.9122Z" fill="#74CBF3" stroke="#28348A" stroke-width="2.8" stroke-miterlimit="10"/>
<path d="M20.7233 72.1773H12.6964V81.2546H20.7233V72.1773Z" fill="#74CBF3" stroke="#28348A" stroke-width="2.8" stroke-miterlimit="10"/>
<path d="M34.0116 72.1774H25.9847V81.2546H34.0116V72.1774Z" fill="#74CBF3" stroke="#28348A" stroke-width="2.8" stroke-miterlimit="10"/>
<path d="M47.3037 72.1774H39.2768V81.2546H47.3037V72.1774Z" fill="#74CBF3" stroke="#28348A" stroke-width="2.8" stroke-miterlimit="10"/>
<path d="M52.7644 56.0229V81.8433C52.7644 84.4237 50.9146 86.5156 48.6291 86.5156H34.9531" stroke="#28348A" stroke-width="2.8" stroke-miterlimit="10"/>
</svg>
