<svg width="84" height="94" viewBox="0 0 84 94" fill="none" xmlns="http://www.w3.org/2000/svg">
<path d="M59.0884 32.0205V30.154C59.0884 20.7465 51.4344 13.1177 41.9916 13.1177C32.5488 13.1177 24.8906 20.7465 24.8906 30.154V32.0205C23.0808 32.0205 21.6146 34.0957 21.6146 36.6512C21.6146 39.2066 23.0808 41.2819 24.8906 41.2819C24.9451 41.2819 24.9996 41.2735 25.0498 41.2694C26.1768 49.5912 33.328 56.0132 41.9874 56.0132C50.6468 56.0132 57.7981 49.5912 58.925 41.2694C58.9795 41.2735 59.0297 41.2819 59.0842 41.2819C60.894 41.2819 62.3603 39.2108 62.3603 36.6512C62.3686 34.0957 60.8982 32.0205 59.0884 32.0205Z" fill="white" stroke="#28348A" stroke-width="2.8" stroke-miterlimit="10" stroke-linecap="round" stroke-linejoin="round"/>
<path d="M79.1722 75.7303C76.7507 66.5983 69.5157 65.6045 69.5157 65.6045L49.654 60.882V54.2846C47.3498 55.4412 44.7524 56.0884 41.9958 56.0884C39.2392 56.0884 36.6376 55.4412 34.3335 54.2846V60.882L14.4717 65.6045C14.4717 65.6045 7.2367 66.5983 4.81525 75.7303L2 91.7185H42H82L79.1722 75.7303Z" fill="white" stroke="#28348A" stroke-width="2.8" stroke-miterlimit="10" stroke-linecap="round" stroke-linejoin="round"/>
<path d="M33.9983 60.5939L26.5078 62.3768L35.1672 72.8909L41.4973 65.1828L33.9983 60.5939Z" fill="white" stroke="#28348A" stroke-width="2.8" stroke-miterlimit="10" stroke-linecap="round" stroke-linejoin="round"/>
<path d="M50.0227 60.6649L57.4755 62.4353L48.8622 72.8909L41.4973 65.1828L50.0227 60.6649Z" fill="white" stroke="#28348A" stroke-width="2.8" stroke-miterlimit="10" stroke-linecap="round" stroke-linejoin="round"/>
<path d="M41.8282 65.1828L37.9572 69.897L41.8282 73.9682L46.026 69.5755L41.8282 65.1828Z" fill="#74CBF3" stroke="#28348A" stroke-width="2.8" stroke-miterlimit="10"/>
<path d="M43.8349 72.0307L41.8282 73.9682L40.1148 72.1685L35.4311 91.6391H41.9916H48.5522L43.8349 72.0307Z" fill="#74CBF3" stroke="#28348A" stroke-width="2.8" stroke-miterlimit="10"/>
<path d="M44.2413 11.197L43.4579 1.71851H41.9917H40.5212L39.742 11.197H44.2413Z" fill="#74CBF3" stroke="#28348A" stroke-width="2.8" stroke-miterlimit="10"/>
<path d="M61.5392 26.7343C61.5392 20.4542 58.8999 14.0698 53.7386 9.88173C52.4651 8.84201 51.0491 7.98602 49.5535 7.31793L49.122 4.55789C47.1362 3.63927 45.2636 3.18413 43.5627 3.00876L44.2413 11.2012H39.742L40.4207 2.9837C37.0189 3.28852 34.8614 4.56206 34.8614 4.56206L34.367 7.32211C29.2057 9.68547 25.4605 14.2577 23.6967 19.3018C22.8589 21.6986 22.4483 24.2206 22.4483 26.7385H61.5392" fill="white"/>
<path d="M61.5392 26.7343C61.5392 20.4542 58.8999 14.0698 53.7386 9.88173C52.4651 8.84201 51.0491 7.98602 49.5535 7.31793L49.122 4.55789C47.1362 3.63927 45.2636 3.18413 43.5627 3.00876L44.2413 11.2012H39.742L40.4207 2.9837C37.0189 3.28852 34.8614 4.56206 34.8614 4.56206L34.367 7.32211C29.2057 9.68547 25.4605 14.2577 23.6967 19.3018C22.8589 21.6986 22.4483 24.2206 22.4483 26.7385H61.5392" stroke="#28348A" stroke-width="2.8" stroke-miterlimit="10"/>
<path d="M49.1219 4.55786L50.6175 14.1783" stroke="#28348A" stroke-width="2.8" stroke-miterlimit="10"/>
<path d="M33.1353 14.1783L34.8614 4.55786" stroke="#28348A" stroke-width="2.8" stroke-miterlimit="10"/>
<path d="M28.8538 16.7589C28.8538 16.7589 26.8722 20.2204 27.0272 22.8678H39.2518" stroke="#28348A" stroke-width="2.8" stroke-miterlimit="10"/>
<path d="M61.7612 26.7343H41.9916H22.2472C22.2472 26.7343 20.4667 26.8011 20.4835 29.5319H41.9916H63.4956C63.5124 26.8052 61.7612 26.7343 61.7612 26.7343Z" fill="white" stroke="#28348A" stroke-width="2.8" stroke-miterlimit="10"/>
</svg>
