<svg width="119" height="84" viewBox="0 0 119 84" fill="none" xmlns="http://www.w3.org/2000/svg">
<path d="M66.1595 37.0633C66.0146 36.9461 65.8294 36.8509 65.6442 36.7996L61.5217 35.4593C60.7568 35.2102 59.8952 35.5838 59.6215 36.2796C59.3477 36.9754 59.7584 37.7591 60.5233 38.0081L64.4123 39.2753L76.3531 48.7896C76.9328 49.2511 77.8588 49.2144 78.3983 48.7091C78.978 48.1671 78.9297 47.2515 78.3097 46.7534L66.1595 37.0633Z" fill="#002EAC"/>
<path d="M107.111 51.5802L100.227 55.7112L77.585 27.0729L118.335 2.54358C119.02 2.13341 119.205 1.29111 118.754 0.668538C118.303 0.0459663 117.377 -0.122494 116.693 0.287671L74.6542 25.6007C73.9617 26.0182 73.7846 26.9044 74.2677 27.5197L76.2726 30.0539L75.3869 30.552L59.5329 26.8019C59.2914 26.7433 59.0256 26.7433 58.776 26.8019L45.0397 30.1125C45.0075 30.0979 44.9672 30.0832 44.935 30.0686L37.8253 27.7541L38.6788 26.465C39.0975 25.8278 38.8801 25.0001 38.1796 24.6192L16.3351 12.4681C15.6346 12.0799 14.7167 12.2777 14.2899 12.9149C13.8632 13.5521 14.0806 14.3871 14.7811 14.7753L35.3695 26.2306L16.6974 54.466L9.14482 50.6354C8.42821 50.2692 7.52641 50.5036 7.12382 51.1554C6.72123 51.8073 6.97889 52.6276 7.69549 52.9939L16.5042 57.4617C17.1966 57.8133 18.0904 57.5936 18.501 56.9783L21.6251 52.2614L26.7782 56.0481L25.9731 56.8758C23.7025 59.2269 23.9521 62.8232 26.5367 64.8886C27.9055 65.98 29.7574 66.478 31.561 66.2363C31.5288 67.8989 32.3098 69.503 33.6786 70.5943C35.0474 71.6856 36.8993 72.1837 38.7029 71.942C38.6707 73.6046 39.4517 75.2087 40.8206 76.3C42.1894 77.3987 44.0413 77.8894 45.8449 77.655C45.8207 79.3103 46.5937 80.9144 47.9625 82.013C49.9513 83.6097 52.9385 83.8734 55.2252 82.6576C55.8049 82.3499 56.3283 81.9544 56.7631 81.5003L58.0353 80.1819L58.768 80.7679C60.7648 82.3573 63.744 82.6209 66.0388 81.3978C66.6185 81.0901 67.1338 80.6946 67.5766 80.2405C68.4543 79.3323 68.9535 78.2336 69.0823 77.113C69.5252 77.2888 69.9922 77.4133 70.4753 77.4865C72.601 77.8161 74.8072 77.1057 76.2243 75.6335C77.0778 74.7472 77.6011 73.6632 77.7299 72.506C78.1728 72.6818 78.6398 72.8063 79.1149 72.8795C81.2405 73.2091 83.4467 72.4986 84.8638 71.0265C85.7173 70.1402 86.2407 69.0489 86.3776 67.8989C86.8285 68.0747 87.2955 68.1992 87.7705 68.2725C89.8398 68.5948 92.038 67.9575 93.5195 66.4194C95.7901 64.0683 95.5244 60.472 92.9398 58.4066L92.038 57.6888L95.9995 55.0081L98.6163 58.3187C99.0752 58.8973 99.9851 59.0511 100.637 58.6556L108.713 53.8142C109.398 53.404 109.591 52.5617 109.132 51.9391C108.713 51.3385 107.795 51.1701 107.111 51.5802ZM28.5013 62.8598C27.1486 61.7758 27.0117 59.8934 28.2034 58.6629L38.6707 47.8375C39.8382 46.629 41.8834 46.4898 43.2361 47.5299C44.629 48.6066 44.7015 50.6061 43.5098 51.8366L33.115 62.5888C31.9314 63.8193 29.8621 63.9438 28.5013 62.8598ZM35.6433 68.5728C34.3067 67.5034 34.1698 65.5918 35.3453 64.3759L43.7192 55.7112C44.8867 54.5027 46.9319 54.3635 48.2846 55.4036C49.6775 56.4803 49.75 58.4798 48.5583 59.7103L40.2569 68.3018C39.0733 69.5323 37.004 69.6568 35.6433 68.5728ZM45.1524 75.0182C44.2828 75.0695 43.4374 74.8058 42.7852 74.2858C41.4486 73.2164 41.3117 71.3048 42.4873 70.0889L48.7677 63.5922C49.9352 62.3837 51.9803 62.2445 53.333 63.2846C54.726 64.3613 54.7985 66.3608 53.6068 67.5913L47.3989 74.0148C46.8272 74.6154 46.0301 74.967 45.1524 75.0182ZM54.5408 79.7278C53.3652 80.9437 51.2637 81.0682 49.9271 79.9988C48.5905 78.9295 48.4536 77.0178 49.6292 75.8019L53.8161 71.4732C54.9836 70.2647 57.0288 70.1256 58.3815 71.1656C59.7745 72.2423 59.8469 74.2419 58.6553 75.4723L54.5408 79.7278ZM89.7754 55.887L83.2696 50.7086C82.6657 50.2252 81.6995 50.2838 81.1761 50.8332C80.6447 51.3825 80.7091 52.2614 81.313 52.7375L90.9993 60.4574C92.352 61.5414 92.4889 63.4164 91.3053 64.6543C90.1217 65.8847 88.0443 66.0093 86.6916 64.9326L76.3048 56.656C75.6848 56.1653 74.7508 56.2239 74.2113 56.7806C73.6718 57.3445 73.7363 58.1942 74.3482 58.6849L82.3517 65.0644C83.6883 66.1338 83.8332 68.0381 82.6576 69.2613C81.4821 70.4771 79.3886 70.609 78.044 69.5396L70.7893 63.7607C70.1693 63.2699 69.2353 63.3285 68.6958 63.8852C68.1564 64.4492 68.2208 65.2988 68.8327 65.7895L73.704 69.6714C75.0406 70.7408 75.1856 72.6451 74.01 73.8683C72.8345 75.0842 70.741 75.216 69.3963 74.1466C69.3963 74.1466 65.1128 70.7335 65.0725 70.7115C64.4606 70.316 63.5991 70.3966 63.0918 70.9239C62.5523 71.4879 62.6167 72.3375 63.2287 72.8282L65.0484 74.2785C66.4011 75.3625 66.538 77.2375 65.3544 78.4753C64.1788 79.6912 62.0853 79.823 60.7407 78.7537L60.008 78.1677L60.8856 77.2595C62.0048 76.0949 62.5845 74.5422 62.4557 72.9894C62.3349 71.4586 61.57 70.0816 60.2978 69.1001C59.3075 68.3384 58.1238 67.9136 56.9161 67.7964C57.3026 66.9541 57.4797 66.0312 57.4072 65.1084C57.2865 63.5776 56.5215 62.2006 55.2494 61.2191C54.259 60.4574 53.0754 60.0326 51.8676 59.9154C52.9143 57.6448 52.2782 54.9348 50.2009 53.3381C49.2105 52.5764 48.0269 52.1515 46.8191 52.0344C47.8659 49.7638 47.2298 47.0538 45.1524 45.4571C42.5758 43.4722 38.6627 43.7358 36.4323 46.043L28.7348 54.0119L23.163 49.9176L36.2552 30.1125L41.0782 31.6799C39.3632 33.0569 38.5499 35.2469 39.1699 37.3856C39.8141 39.6049 41.827 41.165 44.162 41.5312C45.0155 41.663 45.9093 41.6338 46.795 41.4213L56.0384 39.1947C56.8195 39.0043 57.3026 38.2572 57.0932 37.5394C56.8839 36.829 56.0626 36.3895 55.2735 36.5799L46.0462 38.8139C44.307 39.2314 42.5114 38.2865 42.0525 36.7044C41.5935 35.1224 42.6322 33.489 44.3794 33.0716L59.1706 29.5046L75.258 33.3133C75.2983 33.3206 75.3386 33.3279 75.3869 33.3352C75.7412 33.3938 76.1115 33.3279 76.4175 33.1521L78.0198 32.2512L94.3005 52.84L89.7754 55.887Z" fill="#002EAC"/>
<path d="M27.5075 13.6468L3 48.2751L16.831 56.375L41.3385 21.7467L27.5075 13.6468Z" fill="#74CBF3" stroke="#28348A" stroke-width="3" stroke-miterlimit="10"/>
<path d="M13.6136 47.8007C12.2528 47.0024 11.8583 45.3471 12.7359 44.1092C13.6136 42.8714 15.4333 42.5125 16.794 43.3109C18.1548 44.1092 18.5493 45.7572 17.6717 46.9951C16.786 48.2402 14.9743 48.5991 13.6136 47.8007Z" fill="#002EAC"/>
<path d="M86.5812 17.1683L73.5184 26.2632L101.037 58.9681L114.099 49.8732L86.5812 17.1683Z" fill="#74CBF3" stroke="#28348A" stroke-width="3" stroke-miterlimit="10"/>
<path d="M98.6566 47.4492C97.2958 46.6508 96.9013 44.9955 97.7789 43.7577C98.6566 42.5199 100.476 42.161 101.837 42.9593C103.198 43.7577 103.592 45.4057 102.715 46.6435C101.829 47.8813 100.009 48.2402 98.6566 47.4492Z" fill="#002EAC"/>
</svg>
