<svg width="91" height="84" viewBox="0 0 91 84" fill="none" xmlns="http://www.w3.org/2000/svg">
<path d="M89.6662 81.3194H81.0351V32.949C81.0351 32.272 80.4405 31.7273 79.7014 31.7273H65.4465C64.7075 31.7273 64.1128 32.272 64.1128 32.949V81.3194H53.9611V47.3061C53.9611 46.6291 53.3665 46.0843 52.6274 46.0843H38.381C37.642 46.0843 37.0473 46.6291 37.0473 47.3061V81.3194H26.8956V53.8348C26.8956 53.1578 26.3009 52.6131 25.5619 52.6131H11.307C10.568 52.6131 9.97329 53.1578 9.97329 53.8348V81.3194H1.33374C0.59466 81.3194 0 81.8641 0 82.5411C0 83.2181 0.59466 83.7629 1.33374 83.7629H89.6662C90.4053 83.7629 90.9999 83.2181 90.9999 82.5411C91.0084 81.8719 90.4053 81.3194 89.6662 81.3194ZM12.6408 81.3194V55.0565H24.2196V81.3194H12.6408ZM39.7148 81.3194V48.5278H51.2936V81.3194H39.7148ZM66.7888 81.3194V34.1785H78.3676V81.3272H66.7888V81.3194Z" fill="#002EAC"/>
<path d="M5.60678 48.5278C5.64925 48.5278 5.69173 48.5278 5.7342 48.5278C6.24391 48.5122 18.3325 48.1231 34.2609 42.925C43.2147 39.9991 51.6419 36.1239 59.3045 31.3927C59.9162 31.0114 60.0776 30.2566 59.6698 29.6963C59.2621 29.136 58.4295 28.9882 57.8179 29.3617C50.3422 33.9762 42.1189 37.7658 33.3689 40.6217C17.8313 45.6953 6.15046 46.0688 5.65775 46.0844H5.60678C4.78275 46.0844 4.12013 45.493 4.09464 44.7381C4.06916 43.9755 4.72328 43.3375 5.5643 43.3063C5.68323 43.3063 17.415 42.9095 32.5533 37.937C45.2366 33.7739 63.4587 25.2686 78.2572 8.40585C78.9963 7.56544 78.2147 6.28926 77.0509 6.42154L72.7693 6.91178C72.0303 6.99738 71.3082 6.55383 71.1128 5.88461C70.8834 5.08311 71.4951 4.25826 72.387 4.1571L83.7875 2.84979C84.6795 2.74863 85.4865 3.40228 85.4865 4.22713V14.67C85.4865 15.4326 84.8069 16.0552 83.9744 16.0552C83.1419 16.0552 82.4623 15.4326 82.4623 14.67V11.5029C82.4623 11.0049 82.1055 10.538 81.5958 10.359C81.0691 10.1801 80.4489 10.3279 80.0921 10.7326C75.1055 16.3353 69.4222 21.4011 63.2123 25.7899C62.6261 26.2024 62.5242 26.9727 62.9744 27.5097C63.4247 28.0466 64.2657 28.14 64.8519 27.7276C70.2633 23.899 75.2839 19.5724 79.8033 14.8412C79.9052 16.8722 81.7402 18.5064 83.9829 18.5064C86.2936 18.5064 88.171 16.7866 88.171 14.67V4.2427C88.171 3.14549 87.6528 2.09497 86.7523 1.37129C85.8518 0.639815 84.654 0.305206 83.4647 0.437493L72.0557 1.7448C69.796 2.00159 68.1395 3.94699 68.4198 6.02468C68.7086 8.11793 70.7985 9.612 73.0921 9.35521L74.0181 9.24626C60.0351 24.1013 43.4016 31.7818 31.6529 35.6415C16.9988 40.4505 5.58979 40.8629 5.47935 40.8707C3.17717 40.9329 1.35921 42.7071 1.42717 44.816C1.49513 46.9014 3.33008 48.5278 5.60678 48.5278Z" fill="#002EAC"/>
<path d="M24.2536 54.6442H12.4709V80.9849H24.2536V54.6442Z" fill="#74CBF3"/>
<path d="M50.9963 48.629H39.4854V81.2262H50.9963V48.629Z" fill="#74CBF3"/>
<path d="M78.0533 34.3574H66.5424V81.4672H78.0533V34.3574Z" fill="#74CBF3"/>
</svg>
