<svg width="71" height="94" viewBox="0 0 71 94" fill="none" xmlns="http://www.w3.org/2000/svg">
<path d="M69 13.2159H2V91.5703H69V13.2159Z" fill="#74CBF3" stroke="#28348A" stroke-width="3" stroke-miterlimit="10"/>
<path d="M63.6726 13.2159H7.31888V86.3174H63.6726V13.2159Z" fill="white" stroke="#28348A" stroke-width="3" stroke-miterlimit="10"/>
<path d="M13.9643 42.5325H57.0315" stroke="#28348A" stroke-width="3" stroke-miterlimit="10"/>
<path d="M13.9643 56.5833H24.0433" stroke="#28348A" stroke-width="3" stroke-miterlimit="10"/>
<path d="M28.0143 56.5833H57.0314" stroke="#28348A" stroke-width="3" stroke-miterlimit="10"/>
<path d="M13.9643 49.1089H30.4584" stroke="#28348A" stroke-width="3" stroke-miterlimit="10"/>
<path d="M35.0394 49.1089H57.0315" stroke="#28348A" stroke-width="3" stroke-miterlimit="10"/>
<path d="M13.9643 63.7275H57.0315" stroke="#28348A" stroke-width="3" stroke-miterlimit="10"/>
<path d="M13.9643 77.7825H24.0433" stroke="#28348A" stroke-width="3" stroke-miterlimit="10"/>
<path d="M28.0143 77.7825H57.0314" stroke="#28348A" stroke-width="3" stroke-miterlimit="10"/>
<path d="M13.9643 70.3083H30.4584" stroke="#28348A" stroke-width="3" stroke-miterlimit="10"/>
<path d="M35.0394 70.3083H57.0315" stroke="#28348A" stroke-width="3" stroke-miterlimit="10"/>
<path d="M43.4208 9.64155C43.425 9.54551 43.4378 9.44112 43.4378 9.34508C43.4378 5.04843 39.8805 1.57019 35.4958 1.57019C31.1067 1.57019 27.5537 5.05261 27.5537 9.34508C27.5537 9.4453 27.5665 9.54551 27.5708 9.64155H22.0557V18.0135H48.9316V9.64155H43.4208Z" fill="#74CBF3" stroke="#28348A" stroke-width="3" stroke-miterlimit="10"/>
</svg>
